<?xml version="1.0" standalone="no"?>
<!DOCTYPE svg PUBLIC "-//W3C//DTD SVG 20010904//EN"
 "http://www.w3.org/TR/2001/REC-SVG-20010904/DTD/svg10.dtd">
<svg version="1.0" xmlns="http://www.w3.org/2000/svg"
     width="1500" height="543.000000" viewBox="0 0 552.000000 543.000000"
     preserveAspectRatio="xMinYMid meet">
    <metadata>
        Created by potrace 1.10, written by Peter Selinger 2001-2011
    </metadata>
    <text x="600" y="300"
          style="font-family:Raleway, Helvetica, sans-serif; font-size: 6.5em;fill:white;text-transform:uppercase;font-weight:700;letter-spacing:0.05em" >ENFIM DIGITAL</text>
    <g transform="translate(0.000000,543.000000) scale(0.100000,-0.100000)"
       fill="#FFFFFF" stroke="none">
        <path d="M2300 5379 c-25 -5 -75 -13 -113 -19 -37 -5 -76 -14 -87 -20 -10 -5
-31 -10 -45 -10 -14 0 -36 -5 -48 -12 -12 -6 -38 -15 -57 -19 -19 -4 -51 -13
-70 -19 -105 -38 -180 -66 -225 -86 -64 -27 -241 -116 -270 -134 -16 -11 -41
-25 -55 -31 -14 -5 -39 -21 -57 -35 -17 -13 -35 -24 -38 -24 -4 0 -24 -13 -45
-30 -21 -16 -41 -30 -44 -30 -22 0 -255 -198 -371 -315 -166 -166 -374 -443
-451 -600 -8 -16 -19 -39 -26 -50 -25 -44 -28 -51 -34 -65 -3 -8 -13 -31 -22
-50 -36 -81 -65 -151 -85 -205 -32 -90 -39 -112 -47 -145 -4 -19 -13 -48 -18
-65 -39 -116 -53 -215 -59 -429 -6 -253 5 -297 37 -149 16 74 25 107 55 228 8
28 23 97 35 155 28 135 91 337 147 469 85 200 186 386 228 421 8 7 15 19 15
27 0 7 16 29 35 49 19 19 35 40 35 46 0 5 12 25 28 43 15 18 38 50 52 70 24
36 234 255 245 255 2 0 33 27 67 61 35 33 82 74 106 90 23 17 53 41 67 55 13
13 30 24 38 24 8 0 22 9 32 20 9 10 33 24 51 30 19 7 39 20 44 30 5 10 21 21
36 24 15 4 41 18 59 32 17 13 37 24 44 24 6 0 29 11 51 25 22 14 42 25 46 25
3 0 38 15 77 34 40 19 124 52 187 74 63 22 131 45 150 52 19 7 53 16 75 21 22
4 63 13 90 20 28 6 118 26 200 45 260 58 331 94 188 94 -43 0 -107 2 -143 4
-36 3 -85 1 -110 -5z"/>
        <path d="M2992 5383 c-174 -5 -163 -18 68 -78 36 -10 74 -21 85 -26 11 -4 61
-15 110 -24 145 -25 183 -33 214 -50 17 -8 39 -15 49 -15 11 0 52 -13 90 -30
39 -16 80 -30 91 -30 11 0 22 -4 26 -9 3 -5 22 -15 43 -21 20 -7 55 -20 77
-30 112 -50 163 -75 195 -95 19 -12 46 -25 59 -30 29 -9 89 -48 116 -75 12
-11 25 -20 31 -20 6 0 28 -15 50 -33 21 -18 55 -44 74 -57 112 -77 351 -302
434 -409 98 -127 296 -432 296 -457 0 -3 9 -17 20 -31 11 -14 20 -34 20 -43 0
-10 18 -54 40 -98 22 -45 52 -118 66 -164 14 -46 36 -114 49 -153 13 -38 38
-131 55 -205 18 -74 38 -153 45 -175 7 -22 23 -74 35 -115 12 -41 25 -82 28
-90 3 -8 10 41 15 110 7 91 6 144 -3 195 -6 39 -15 93 -19 120 -9 56 -28 135
-43 180 -5 17 -14 46 -18 65 -4 19 -18 60 -30 90 -12 30 -24 64 -27 75 -3 11
-11 34 -18 50 -7 17 -21 48 -30 70 -10 22 -22 47 -27 55 -4 8 -11 22 -14 30
-3 8 -10 22 -15 30 -5 8 -12 22 -15 30 -3 8 -10 22 -15 30 -5 8 -12 22 -15 30
-11 24 -132 219 -180 289 -74 108 -167 217 -288 337 -264 262 -530 441 -876
591 -19 9 -48 22 -63 29 -16 8 -36 14 -46 14 -9 0 -26 7 -37 15 -10 8 -30 15
-45 15 -14 0 -29 4 -35 9 -5 6 -27 14 -49 20 -100 25 -133 34 -179 47 -26 8
-63 14 -81 14 -19 0 -44 4 -57 9 -35 13 -120 17 -256 14z"/>
        <path d="M2564 5141 c-5 -5 -111 -13 -157 -12 -21 1 -48 -5 -60 -14 -12 -8
-42 -15 -67 -15 -25 -1 -63 -7 -85 -15 -22 -8 -55 -15 -73 -15 -17 0 -49 -9
-69 -20 -21 -11 -47 -20 -58 -20 -11 -1 -31 -7 -45 -15 -14 -8 -38 -14 -53
-15 -16 0 -40 -9 -54 -20 -14 -11 -35 -20 -47 -20 -11 0 -48 -14 -80 -30 -32
-17 -69 -30 -82 -30 -13 0 -25 -8 -29 -19 -3 -10 -18 -24 -34 -31 -16 -6 -38
-22 -50 -36 -24 -27 -49 -31 -57 -9 -11 27 -33 16 -36 -17 -2 -27 -9 -35 -35
-43 -20 -5 -33 -16 -33 -26 0 -29 -27 -44 -54 -29 -33 17 -50 9 -51 -26 0 -25
-4 -30 -35 -34 -28 -4 -36 -11 -43 -37 -7 -24 -17 -34 -39 -38 -28 -7 -48 -36
-48 -69 0 -7 31 -47 70 -87 66 -71 85 -109 60 -124 -6 -4 -44 27 -84 69 -55
57 -72 82 -69 99 4 24 -39 63 -57 52 -15 -9 -12 -25 4 -25 19 0 28 -14 20 -34
-8 -20 -48 -21 -64 -1 -23 28 -29 15 -15 -32 8 -27 15 -49 15 -49 0 -1 -11 1
-25 4 -31 6 -52 -11 -60 -48 -5 -22 -13 -29 -40 -34 -32 -6 -33 -9 -28 -40 4
-29 1 -36 -26 -55 -17 -12 -31 -31 -31 -41 0 -10 -13 -28 -29 -39 -15 -11 -34
-34 -41 -50 -7 -17 -21 -33 -32 -37 -15 -4 -18 -12 -14 -30 5 -19 1 -27 -19
-36 -17 -7 -29 -24 -36 -51 -8 -30 -14 -38 -29 -34 -10 2 -24 1 -31 -4 -12 -8
-11 -12 4 -23 25 -20 22 -64 -8 -87 -14 -12 -27 -35 -31 -57 -4 -20 -12 -44
-19 -52 -19 -23 -36 -59 -41 -88 -3 -15 -11 -34 -19 -42 -7 -8 -13 -32 -13
-54 0 -21 -5 -42 -11 -46 -7 -3 -14 -24 -17 -46 -3 -21 -12 -52 -19 -69 -7
-16 -18 -64 -25 -105 -14 -96 -28 -194 -35 -245 -11 -76 -13 -489 -2 -509 5
-11 12 -45 14 -75 8 -100 11 -125 22 -174 6 -26 15 -56 21 -66 5 -11 10 -34
10 -52 0 -18 7 -40 15 -49 9 -10 20 -46 26 -80 5 -35 16 -72 24 -84 8 -11 15
-36 15 -54 0 -19 9 -45 20 -59 11 -14 20 -35 20 -45 0 -11 9 -22 19 -25 23 -6
38 -53 20 -63 -14 -9 -3 -30 17 -30 8 0 14 -7 14 -16 0 -9 14 -29 31 -45 28
-26 31 -34 26 -69 -4 -34 -2 -40 13 -40 21 0 50 -35 50 -60 0 -8 13 -21 30
-28 33 -15 39 -42 15 -62 -8 -7 -15 -19 -15 -27 0 -12 9 -14 49 -8 47 6 49 6
44 -14 -3 -12 -10 -21 -15 -21 -5 0 -8 -10 -6 -22 2 -17 11 -24 31 -26 15 -2
31 -11 36 -20 13 -24 97 -109 120 -121 11 -6 21 -23 23 -38 2 -21 9 -29 28
-32 29 -4 40 -17 40 -47 0 -17 8 -23 33 -28 26 -5 35 -13 42 -39 9 -30 13 -32
48 -29 l38 4 -7 -37 -7 -37 42 7 c40 7 42 6 54 -24 8 -21 22 -34 44 -42 18 -6
38 -19 43 -30 7 -12 21 -19 41 -19 22 0 32 -5 36 -20 3 -12 14 -20 25 -20 11
0 33 -13 48 -30 15 -16 37 -30 48 -30 10 0 40 -11 66 -25 26 -14 53 -25 61
-25 7 0 27 -11 43 -25 17 -14 40 -25 53 -25 13 0 38 -9 56 -19 17 -11 49 -23
70 -27 21 -4 54 -15 73 -24 20 -10 58 -21 85 -25 28 -4 64 -13 80 -20 17 -8
50 -16 75 -19 25 -3 95 -12 155 -21 61 -9 133 -18 160 -20 99 -9 330 -12 340
-4 6 4 26 8 45 8 47 -1 151 11 170 18 17 7 41 11 125 19 33 3 65 10 70 14 6 5
28 11 50 15 22 4 50 13 62 21 12 8 34 14 48 14 14 0 38 6 53 14 15 8 48 17 73
21 27 4 57 17 72 31 36 33 75 41 84 18 6 -17 8 -16 13 6 4 16 14 26 28 28 12
2 53 23 90 48 37 24 76 44 88 44 11 0 33 13 48 29 20 20 41 31 65 33 32 3 36
6 34 30 -1 25 1 27 39 25 39 -2 42 0 50 31 7 27 13 32 38 32 25 0 31 5 38 33
9 32 13 34 45 22 13 -6 18 -1 23 24 5 23 14 33 38 41 22 7 37 21 47 42 9 20
23 35 39 38 17 4 26 14 28 30 5 32 30 60 53 60 13 0 20 10 25 34 5 28 11 35
32 38 18 2 28 10 32 28 5 20 13 26 43 28 36 3 50 23 27 37 -19 12 -10 44 19
64 16 12 31 34 34 51 5 21 12 30 26 30 13 0 23 11 31 34 6 19 19 36 29 39 12
3 20 17 24 46 3 23 16 54 31 72 14 17 26 37 26 45 0 7 11 16 25 20 21 5 23 8
10 21 -19 19 -19 19 9 56 14 18 27 46 31 62 6 27 19 61 69 178 9 21 16 46 16
56 0 10 9 38 20 63 10 24 17 53 14 65 -3 12 1 36 9 55 8 18 18 49 21 68 3 19
11 58 17 85 15 64 17 101 17 380 0 296 -1 327 -12 343 -4 7 -9 32 -11 55 -4
46 -17 123 -35 202 -6 28 -13 59 -14 70 -5 30 -23 72 -35 80 -6 3 -11 23 -11
43 0 21 -6 46 -13 57 -7 11 -19 39 -26 63 -7 24 -21 58 -32 75 -10 18 -19 42
-19 54 0 12 -6 26 -14 30 -27 16 -39 53 -25 79 14 28 9 36 -23 38 -18 1 -26
11 -36 43 -8 25 -21 45 -33 48 -10 4 -19 13 -19 20 0 29 -24 65 -43 65 -17 0
-19 5 -14 43 4 30 3 37 -4 25 -9 -17 -12 -17 -34 -2 -28 18 -33 52 -10 60 18
7 20 40 3 50 -7 4 -17 -1 -25 -13 -9 -14 -21 -19 -34 -16 -23 6 -24 26 -3 58
27 42 3 53 -61 28 -16 -5 -17 -1 -11 41 l7 48 -33 -4 c-29 -3 -35 1 -48 28 -9
20 -26 35 -45 40 -17 5 -31 17 -33 28 -2 10 -29 43 -59 73 -45 43 -58 51 -69
42 -21 -17 -29 -3 -14 25 7 14 10 33 6 43 -7 16 -9 16 -25 -6 -22 -29 -61 -22
-61 12 0 33 -12 45 -45 49 -24 2 -31 9 -35 33 -6 31 -19 35 -67 20 -16 -5 -23
-2 -28 16 -5 14 -3 25 4 27 19 6 12 32 -9 32 -11 0 -20 -4 -20 -10 0 -21 -50
-9 -78 20 -17 17 -40 30 -51 30 -11 0 -26 9 -34 20 -8 12 -21 18 -29 15 -9 -4
-21 4 -32 19 -11 18 -25 26 -45 26 -16 0 -34 7 -41 15 -7 8 -28 17 -49 21 -20
4 -40 10 -46 14 -5 5 -39 16 -75 25 -36 9 -83 25 -104 35 -27 13 -44 16 -56
10 -13 -7 -28 -3 -55 16 -23 15 -44 22 -56 19 -10 -4 -52 3 -92 14 -40 11 -89
20 -108 21 -96 3 -146 7 -167 14 -14 5 -28 3 -37 -4 -9 -8 -19 -8 -32 -1 -18
9 -260 11 -269 2z m144 -33 c15 -15 16 -196 2 -218 -7 -12 -13 -12 -27 -4 -14
9 -19 30 -24 105 -3 52 -2 102 3 112 10 20 29 22 46 5z m107 -10 c3 -13 4 -62
2 -110 -3 -94 -15 -121 -42 -98 -19 16 -22 199 -3 218 19 19 37 14 43 -10z
m-219 4 c6 -4 14 -55 18 -113 6 -95 5 -107 -10 -113 -30 -11 -39 12 -42 110
-5 117 2 138 34 116z m-92 -10 c3 -5 8 -57 12 -116 l7 -108 -24 4 c-21 3 -25
9 -30 63 -4 33 -11 78 -16 100 -5 22 -8 46 -6 53 5 13 49 17 57 4z m418 -22
c-2 -14 -6 -62 -10 -107 -8 -89 -14 -103 -40 -87 -15 10 -16 25 -13 110 2 55
5 103 8 107 3 5 17 7 31 5 22 -2 26 -7 24 -28z m100 -28 c-1 -29 -9 -79 -16
-110 -10 -45 -17 -57 -32 -57 -18 0 -19 7 -15 100 3 106 11 128 45 123 19 -3
21 -9 18 -56z m93 47 c4 -6 4 -55 0 -110 -6 -85 -10 -101 -27 -110 -15 -8 -24
-8 -34 3 -12 12 -12 26 2 98 9 47 18 95 20 108 5 23 28 30 39 11z m-711 -15
c10 -26 27 -195 21 -205 -9 -13 -31 -11 -43 4 -13 15 -36 182 -28 202 7 20 42
19 50 -1z m-93 -64 c4 -30 12 -75 18 -99 13 -48 9 -71 -11 -71 -28 0 -39 20
-49 86 -6 38 -15 81 -21 96 -13 34 -3 50 30 46 25 -3 28 -8 33 -58z m925 47
c3 -8 0 -27 -7 -43 -6 -16 -17 -60 -23 -99 -10 -67 -12 -70 -40 -73 -28 -3
-28 -3 -23 35 12 80 27 168 32 181 6 16 54 16 61 -1z m-1032 -39 c3 -13 10
-45 17 -73 16 -74 22 -135 12 -135 -27 0 -51 33 -57 77 -4 27 -14 65 -23 85
-19 45 -12 68 21 68 18 0 27 -6 30 -22z m1126 -2 c0 -13 -6 -46 -14 -72 -8
-27 -18 -65 -23 -84 -7 -28 -14 -35 -33 -35 -34 0 -33 11 11 178 8 30 14 37
34 37 20 0 25 -5 25 -24z m-1218 -66 c11 -36 24 -75 30 -86 16 -33 6 -59 -22
-59 -21 0 -26 7 -36 45 -5 25 -13 52 -16 60 -20 50 -25 78 -16 94 18 33 40 13
60 -54z m1313 56 c14 -10 16 -18 9 -27 -5 -8 -18 -41 -28 -74 -34 -114 -37
-116 -71 -91 -18 13 -18 15 -2 49 9 19 17 42 17 50 0 9 5 19 10 22 6 3 10 17
10 30 0 53 19 67 55 41z m-1427 -28 c7 -7 12 -24 12 -39 0 -15 5 -31 10 -34 6
-3 10 -14 10 -23 0 -9 7 -30 15 -46 21 -39 19 -53 -7 -60 -25 -6 -48 15 -48
45 0 17 -21 73 -43 118 -10 19 -9 25 8 37 23 17 28 17 43 2z m1536 -9 c5 -4 3
-18 -6 -31 -8 -13 -23 -50 -33 -83 -26 -86 -36 -96 -69 -72 -15 11 -16 17 -7
33 16 29 41 95 41 110 0 7 5 25 10 39 8 21 14 25 33 20 12 -4 26 -11 31 -16z
m-1605 -99 c14 -41 29 -76 33 -78 17 -7 7 -41 -13 -47 -28 -9 -35 0 -60 71
-11 32 -27 69 -36 82 -20 32 -10 54 24 50 24 -3 30 -12 52 -78z m1701 57 c0
-12 -6 -31 -13 -42 -8 -11 -24 -48 -37 -83 -25 -69 -34 -79 -55 -62 -20 16
-19 33 4 81 11 22 23 54 26 72 10 42 22 57 51 57 18 0 24 -5 24 -23z m-1816
-41 c9 -19 16 -39 16 -44 0 -6 11 -32 25 -58 14 -26 25 -55 25 -65 0 -44 -55
-33 -65 12 -4 17 -13 42 -21 57 -8 15 -14 32 -14 38 0 6 -7 17 -15 24 -15 13
-20 51 -8 63 16 17 42 4 57 -27z m1906 0 c0 -18 -7 -39 -15 -46 -8 -7 -15 -17
-15 -22 0 -6 -6 -24 -14 -41 -7 -18 -18 -45 -25 -60 -13 -33 -44 -34 -49 -1
-3 19 8 48 64 172 21 45 54 45 54 -2z m-1973 -105 c29 -56 51 -107 48 -112 -4
-5 -17 -9 -31 -9 -18 0 -27 8 -35 28 -14 40 -42 95 -58 114 -16 20 -7 92 12
85 6 -2 35 -50 64 -106z m2060 77 c10 -23 8 -29 -67 -178 -9 -19 -39 -25 -52
-12 -11 11 19 92 34 92 4 0 8 5 8 11 0 13 29 78 43 97 14 18 23 15 34 -10z
m-805 -22 c20 0 40 -4 44 -8 4 -5 20 -8 36 -8 35 0 200 -37 248 -56 19 -7 48
-13 63 -12 15 0 36 -7 46 -16 9 -9 25 -16 34 -16 8 0 29 -11 45 -24 17 -15 36
-23 48 -20 11 3 61 -16 118 -46 55 -27 108 -50 118 -50 10 0 18 -7 18 -15 0
-9 13 -18 31 -22 29 -5 31 -8 26 -39 -5 -29 -3 -34 13 -34 10 0 22 5 25 10 8
14 42 13 51 -2 4 -6 0 -16 -9 -23 -10 -7 -17 -15 -17 -19 0 -10 29 -7 49 6 26
16 48 4 56 -31 5 -24 12 -31 29 -31 23 0 50 -23 58 -49 2 -7 19 -19 38 -25 29
-9 36 -16 38 -43 3 -29 7 -33 31 -33 31 0 59 -24 41 -35 -13 -8 -13 -16 0 -35
9 -13 12 -13 25 4 7 10 18 15 24 11 14 -8 14 -52 1 -60 -21 -13 -9 -22 27 -21
36 1 38 -1 43 -34 4 -27 10 -36 28 -38 13 -2 28 -14 34 -27 6 -13 19 -26 29
-28 12 -3 19 -14 19 -29 0 -14 13 -37 30 -53 17 -16 30 -39 30 -51 0 -12 13
-33 30 -47 18 -15 31 -37 33 -55 2 -15 11 -39 20 -52 9 -14 17 -32 17 -41 0
-8 14 -28 30 -42 34 -30 39 -61 13 -76 -17 -10 -16 -11 3 -17 20 -5 44 -41 44
-66 0 -7 11 -28 25 -47 14 -21 25 -53 26 -76 2 -22 11 -57 22 -78 12 -23 17
-46 13 -62 -4 -15 -1 -35 7 -48 8 -12 19 -71 26 -132 6 -60 14 -126 17 -145 4
-27 0 -40 -15 -54 -23 -21 -46 -12 -64 24 -8 15 -25 27 -45 31 -18 4 -38 14
-45 23 -7 8 -31 22 -55 30 -24 9 -50 22 -58 31 -9 8 -29 15 -45 15 -16 0 -46
7 -66 15 -51 21 -87 12 -106 -28 -34 -71 -40 -113 -35 -268 7 -210 24 -253
105 -265 37 -5 47 -3 64 15 11 11 32 21 47 21 15 0 41 9 57 21 55 37 144 79
169 79 28 0 45 18 27 30 -9 5 -8 10 3 20 13 10 20 9 42 -5 24 -16 25 -19 19
-83 -4 -37 -11 -82 -16 -99 -6 -18 -8 -36 -6 -40 4 -7 -6 -66 -32 -183 -4 -19
-12 -44 -18 -55 -6 -11 -8 -34 -6 -52 4 -24 0 -34 -16 -45 -13 -8 -21 -23 -21
-42 0 -16 -7 -34 -16 -41 -9 -6 -17 -25 -18 -42 -2 -17 -12 -46 -23 -64 -12
-19 -24 -50 -28 -69 -4 -19 -13 -42 -19 -50 -7 -8 -18 -29 -25 -47 -7 -17 -21
-39 -32 -49 -10 -9 -19 -25 -19 -36 0 -14 -5 -17 -24 -12 -31 7 -43 -12 -16
-26 29 -16 25 -35 -15 -59 -25 -14 -35 -27 -35 -45 0 -24 -16 -36 -52 -36 -18
0 -19 -4 -13 -41 l7 -41 -40 7 c-46 7 -62 -7 -38 -34 21 -23 20 -38 -4 -51
-16 -9 -22 -8 -26 5 -3 8 -12 15 -20 15 -16 0 -19 -36 -4 -45 6 -3 10 -15 10
-27 0 -15 -5 -19 -20 -15 -14 4 -35 -9 -73 -46 -30 -29 -56 -60 -60 -69 -4
-12 -17 -18 -36 -18 -25 0 -30 -4 -33 -27 -3 -26 -6 -28 -45 -26 -43 2 -43 1
-43 -33 0 -32 -2 -34 -33 -34 -26 0 -36 -6 -45 -26 -7 -14 -25 -30 -41 -35
-15 -6 -33 -21 -39 -34 -12 -26 -41 -34 -43 -12 0 6 -5 2 -11 -11 -6 -12 -16
-22 -21 -22 -10 0 -96 -40 -127 -60 -36 -21 -85 -40 -107 -40 -13 0 -35 -11
-49 -25 -28 -28 -36 -30 -64 -13 -16 10 -23 9 -42 -8 -13 -11 -34 -25 -48 -31
-24 -11 -209 -51 -260 -57 -14 -1 -38 -6 -55 -11 -26 -7 -94 -10 -177 -6 -34
1 -38 30 -8 49 11 7 20 19 20 28 0 9 9 23 19 32 21 18 91 146 91 166 0 6 9 29
20 51 53 103 35 142 -78 174 -137 39 -399 17 -443 -36 -17 -20 -21 -141 -5
-151 6 -4 20 -33 31 -64 11 -32 24 -58 31 -58 21 0 37 -30 38 -74 1 -50 13
-69 27 -43 14 25 25 21 43 -15 20 -40 21 -37 -15 -52 -43 -18 -227 -10 -251
11 -11 10 -28 14 -45 10 -16 -3 -39 1 -53 8 -14 8 -39 14 -57 15 -18 0 -56 9
-85 21 -90 36 -222 79 -240 79 -10 0 -18 4 -18 10 0 5 -11 12 -25 16 -14 3
-36 20 -50 38 -20 26 -27 29 -42 20 -14 -9 -25 -8 -46 2 -15 8 -27 19 -27 24
0 6 -9 10 -21 10 -11 0 -36 16 -55 35 -18 19 -42 35 -52 35 -10 0 -31 14 -45
30 -15 17 -36 30 -46 30 -13 0 -21 8 -23 23 -2 16 -11 23 -30 25 -22 3 -28 9
-28 26 0 30 -23 49 -49 41 -16 -5 -20 -1 -23 22 -3 25 -8 28 -41 31 -38 3 -39
4 -33 37 6 32 -6 56 -19 35 -3 -5 -17 -10 -30 -10 -18 0 -26 7 -31 27 -5 17
-3 28 4 31 13 4 17 42 5 42 -3 0 -15 -7 -25 -16 -14 -14 -20 -14 -33 -4 -18
15 -19 42 -3 58 9 9 9 15 0 24 -10 10 -17 10 -33 0 -18 -11 -23 -11 -35 5 -7
10 -13 25 -13 33 2 30 -1 35 -31 48 -21 10 -30 21 -30 37 0 16 -7 25 -25 29
-14 4 -25 13 -25 22 0 8 -11 26 -25 40 -16 16 -24 32 -20 43 3 10 -1 24 -10
31 -8 7 -23 29 -32 49 -9 20 -25 48 -35 63 -10 14 -18 40 -18 57 0 17 -4 31
-10 31 -14 0 -40 55 -40 83 0 14 -7 30 -15 37 -8 7 -15 25 -15 40 0 15 -9 39
-20 53 -11 14 -20 38 -20 54 0 15 -7 51 -16 78 -28 90 -47 213 -45 285 0 19
-4 47 -10 62 -24 60 20 106 54 58 8 -11 29 -25 47 -32 19 -6 49 -22 67 -34 19
-12 55 -32 81 -44 26 -11 60 -28 75 -36 81 -41 157 -22 178 44 19 65 23 307 6
390 -17 82 -38 112 -75 112 -31 0 -127 -27 -164 -46 -14 -8 -37 -14 -51 -14
-17 0 -33 -10 -46 -29 -14 -19 -33 -31 -57 -35 -27 -6 -38 -14 -45 -36 -6 -16
-18 -31 -27 -35 -22 -8 -55 32 -48 59 2 12 10 77 17 146 7 69 18 134 26 146 8
12 11 33 7 50 -4 21 -1 34 10 43 9 8 16 25 16 38 0 30 56 199 76 230 8 12 14
36 14 52 0 20 9 37 30 54 23 20 30 34 30 61 0 26 5 36 20 41 14 4 20 15 20 35
0 19 10 38 30 57 17 15 30 36 30 45 0 9 8 23 18 30 19 14 82 112 82 128 0 5
13 16 29 25 18 9 32 26 36 44 4 21 13 30 35 34 24 5 29 12 32 39 3 30 6 33 38
34 25 1 34 5 31 15 -2 8 -6 22 -8 31 -7 23 42 47 59 30 7 -7 19 -12 27 -12 11
0 10 4 -4 20 -17 18 -17 21 -1 45 18 27 56 34 56 10 0 -8 9 -15 20 -15 24 0
26 22 4 41 -9 7 -13 21 -10 34 4 15 -2 31 -17 47 -12 13 -30 36 -40 52 -10 15
-34 45 -54 66 -38 43 -36 60 5 60 21 0 33 -10 52 -41 14 -22 37 -53 52 -67 17
-17 28 -38 28 -57 1 -31 20 -65 36 -65 5 0 16 15 24 33 8 17 25 36 38 42 12 5
22 17 22 27 0 10 11 19 29 23 16 3 37 18 46 32 15 22 22 24 56 19 32 -5 39 -3
39 11 0 25 30 53 56 53 13 0 35 11 49 25 22 20 30 22 46 12 15 -9 23 -7 47 16
19 18 71 42 148 68 65 23 124 44 129 48 6 3 27 6 47 7 20 0 44 7 53 14 10 8
33 13 52 11 19 -1 39 2 46 7 18 14 88 23 207 25 100 2 105 1 102 -18 -2 -11
-11 -31 -19 -44 -15 -24 -16 -24 -30 -5 -12 16 -15 17 -24 4 -5 -8 -7 -31 -5
-50 6 -43 -1 -57 -34 -61 -23 -4 -25 -9 -30 -62 -4 -44 -11 -63 -27 -75 -17
-13 -22 -30 -25 -78 -4 -82 12 -104 92 -128 53 -16 83 -18 209 -13 164 6 225
20 253 58 19 25 19 29 4 88 -9 35 -23 72 -31 84 -8 12 -15 31 -15 42 0 20 -76
151 -120 208 -17 22 -19 31 -10 42 13 16 63 25 100 18 14 -3 41 -6 62 -7z
m-1356 -78 c19 -40 41 -80 49 -88 14 -15 10 -70 -5 -70 -11 0 -60 59 -60 72 0
5 -13 30 -30 55 -28 42 -38 82 -23 96 18 18 36 1 69 -65z m2256 32 c-1 -19 -9
-41 -16 -50 -7 -8 -24 -36 -36 -62 -23 -47 -30 -52 -60 -48 -28 3 -34 19 -16
39 21 23 62 94 77 134 8 20 17 27 33 25 17 -2 21 -9 18 -38z m-1112 -65 c21
-38 50 -94 66 -122 15 -29 31 -53 36 -53 4 0 8 -7 8 -15 0 -14 54 -98 88 -138
8 -9 13 -19 11 -22 -7 -6 -509 -8 -516 -2 -3 3 15 34 39 69 58 86 67 100 77
123 5 11 21 37 35 58 14 21 26 44 26 51 0 8 7 19 15 26 8 7 15 16 15 20 0 4 7
24 15 44 22 52 41 44 85 -39z m-1229 -25 c23 -39 45 -73 50 -76 5 -3 9 -16 9
-30 0 -17 -6 -24 -19 -24 -24 0 -44 24 -83 100 -7 14 -18 31 -25 38 -21 22
-16 62 7 62 13 0 32 -21 61 -70z m2435 55 c4 -8 -2 -27 -12 -43 -30 -44 -42
-65 -60 -104 -12 -29 -22 -38 -40 -38 -39 0 -39 26 0 83 20 29 36 56 36 60 0
4 7 19 16 32 18 28 52 33 60 10z m84 -50 c10 -12 4 -26 -29 -77 -22 -35 -47
-72 -56 -83 -8 -10 -15 -23 -15 -27 0 -4 -9 -8 -20 -8 -33 0 -24 44 23 113 24
34 46 70 50 80 8 21 30 22 47 2z m-2621 -30 c8 -16 17 -32 20 -35 16 -14 48
-68 54 -91 6 -24 -5 -39 -29 -39 -2 0 -24 31 -48 69 -25 38 -49 72 -55 76 -6
3 -11 17 -11 31 0 22 4 25 27 22 19 -2 32 -12 42 -33z m2711 -42 c0 -8 -19
-40 -42 -71 -24 -32 -48 -66 -54 -77 -16 -29 -39 -29 -52 -1 -9 20 -7 27 14
47 14 13 35 39 46 59 36 60 59 81 75 69 7 -6 13 -18 13 -26z m-2814 9 c5 -4
21 -25 34 -47 14 -22 37 -52 52 -67 19 -18 26 -33 21 -45 -14 -38 -48 -44 -59
-10 -7 22 -59 97 -89 128 -23 24 -19 49 8 49 12 0 27 -4 33 -8z m2904 -72 c0
-10 -6 -23 -13 -27 -8 -4 -31 -30 -52 -58 -43 -57 -77 -95 -86 -95 -4 0 -10
12 -13 26 -6 21 -1 34 21 58 16 17 42 50 57 74 23 33 35 42 57 42 22 0 29 -5
29 -20z m-3046 -78 c14 -21 42 -53 61 -72 24 -23 35 -43 35 -63 0 -25 -3 -28
-22 -22 -13 4 -27 14 -33 22 -5 9 -31 39 -57 67 -32 35 -48 60 -48 79 0 40 32
35 64 -11z m3131 22 c0 -6 -24 -37 -54 -70 -29 -32 -58 -69 -64 -81 -14 -31
-45 -30 -53 2 -5 19 0 31 17 48 13 12 40 44 59 70 30 40 40 47 65 45 17 -2 30
-8 30 -14z m63 -72 c5 -31 -142 -182 -159 -165 -20 20 -4 51 61 121 67 73 93
84 98 44z m-3304 -129 c65 -68 82 -103 49 -103 -28 1 -167 135 -160 154 12 31
45 15 111 -51z m3385 58 c18 -12 -135 -160 -166 -161 -40 0 -26 31 45 101 64
65 91 79 121 60z m69 -83 c3 -21 -3 -30 -25 -42 -16 -8 -48 -33 -71 -56 -32
-32 -47 -41 -69 -38 -15 2 -28 8 -28 13 0 17 159 154 175 152 8 -1 16 -14 18
-29z m-3530 -38 c34 -33 67 -60 72 -60 16 0 12 -40 -5 -46 -17 -7 -44 9 -95
58 -20 18 -48 39 -63 45 -15 7 -27 21 -27 31 0 52 45 41 118 -28z m-84 -63
c28 -23 64 -51 79 -60 31 -20 35 -59 6 -65 -22 -4 -179 126 -179 149 0 32 39
22 94 -24z m3676 21 c0 -15 -13 -31 -35 -47 -19 -13 -51 -39 -71 -58 -41 -39
-77 -41 -82 -6 -2 16 5 26 25 37 15 8 48 33 73 55 51 46 90 54 90 19z m56 -73
c4 -14 5 -27 3 -29 -2 -2 -35 -27 -72 -55 -70 -53 -96 -61 -116 -37 -9 11 -1
21 41 50 29 19 69 49 88 65 43 37 48 38 56 6z m-3814 -12 c18 -16 38 -32 44
-38 6 -5 27 -19 48 -30 21 -12 35 -26 34 -35 -5 -23 -57 -25 -78 -3 -9 11 -40
34 -69 52 -29 19 -51 41 -51 50 0 40 27 41 72 4z m3876 -79 c2 -24 -3 -32 -33
-48 -37 -20 -66 -41 -97 -72 -17 -17 -59 -16 -65 1 -2 6 7 20 19 33 40 39 153
121 163 118 6 -1 11 -16 13 -32z m-3911 -20 c89 -62 107 -80 100 -98 -10 -26
-33 -19 -94 28 -32 24 -68 46 -80 50 -31 10 -32 66 -1 66 5 0 39 -21 75 -46z
m-117 -44 c0 -6 8 -14 18 -17 9 -4 35 -19 57 -34 22 -14 50 -30 63 -33 16 -5
22 -15 22 -36 0 -39 -19 -42 -61 -9 -20 16 -59 40 -88 54 -39 20 -51 31 -51
49 0 12 3 26 7 29 10 11 33 8 33 -3z m4088 -21 c-2 -18 -10 -36 -18 -40 -8 -5
-46 -27 -84 -49 -37 -23 -75 -39 -83 -36 -20 8 -12 47 12 60 11 6 38 22 60 36
22 14 48 29 58 33 9 3 17 11 17 17 0 5 9 10 21 10 17 0 20 -5 17 -31z m60 -92
c3 -22 -2 -29 -25 -37 -30 -11 -35 -13 -104 -53 -40 -24 -48 -25 -64 -13 -25
18 -10 37 49 65 23 12 57 32 76 46 42 31 64 29 68 -8z m-4168 3 c14 -11 53
-34 88 -50 66 -32 74 -43 42 -60 -22 -12 -52 -6 -73 13 -14 14 -69 42 -109 56
-26 10 -37 38 -21 54 12 13 48 6 73 -13z m-42 -93 c20 -12 58 -33 85 -45 45
-22 62 -52 38 -66 -12 -8 -71 14 -71 25 0 5 -5 9 -11 9 -5 0 -35 11 -66 25
-40 19 -53 30 -49 41 3 9 6 20 6 25 0 16 29 10 68 -14z m4272 11 c0 -24 -15
-36 -72 -62 -31 -14 -60 -26 -63 -26 -4 0 -13 -7 -21 -15 -9 -8 -29 -15 -45
-15 -22 0 -29 5 -29 19 0 14 21 30 78 58 42 21 79 41 80 46 6 13 72 8 72 -5z
m30 -104 c0 -17 -8 -28 -27 -36 -16 -6 -55 -24 -87 -40 -56 -28 -106 -32 -106
-9 0 14 50 51 79 58 14 3 46 19 70 34 50 30 71 28 71 -7z m-4352 2 c26 -13 58
-27 72 -31 36 -11 80 -44 80 -61 0 -24 -55 -16 -115 16 -30 17 -61 30 -68 30
-27 0 -50 26 -43 48 9 28 16 27 74 -2z m4390 -94 c15 -24 21 -20 -78 -59 -19
-7 -48 -20 -63 -28 -43 -23 -67 -19 -67 9 0 17 9 28 34 40 19 9 40 16 48 17 7
0 31 11 53 24 47 27 53 26 73 -3z m-4419 -2 c93 -42 151 -73 151 -80 0 -23
-72 -26 -90 -5 -7 8 -19 15 -27 15 -8 0 -29 6 -46 14 -18 8 -40 16 -49 20 -18
5 -24 36 -11 49 10 11 24 8 72 -13z m4469 -98 c-2 -8 -10 -18 -18 -22 -8 -4
-25 -12 -37 -18 -13 -7 -28 -12 -33 -12 -6 0 -31 -9 -56 -21 -51 -23 -77 -22
-82 2 -5 25 23 46 70 54 24 4 49 12 56 17 16 13 73 26 90 20 7 -2 12 -11 10
-20z m-4510 3 c15 -8 46 -19 69 -25 49 -12 75 -34 66 -56 -4 -11 -14 -14 -32
-11 -46 9 -163 55 -178 70 -34 34 24 51 75 22z m-45 -89 c18 -8 58 -22 89 -31
54 -16 75 -35 62 -56 -8 -13 -51 -11 -82 5 -15 8 -49 17 -75 21 -55 8 -79 39
-49 63 20 15 17 15 55 -2z m4584 -3 c9 -23 -28 -50 -80 -58 -23 -4 -54 -14
-69 -21 -36 -19 -67 -18 -75 3 -9 22 26 49 75 57 22 3 52 13 68 21 38 20 73
19 81 -2z m-4619 -92 c9 -5 51 -20 92 -33 50 -15 75 -28 75 -38 0 -12 -12 -15
-59 -13 -33 1 -64 7 -70 13 -5 5 -24 10 -40 10 -45 0 -60 13 -52 44 7 27 24
33 54 17z m4652 -8 c0 -30 -13 -41 -55 -48 -22 -4 -59 -13 -83 -21 -62 -20
-92 -18 -92 6 0 22 48 46 112 56 21 4 41 11 44 15 3 5 21 9 40 9 26 0 34 -4
34 -17z m-4625 -108 c22 -8 52 -15 66 -15 36 0 62 -21 53 -44 -8 -20 -33 -19
-156 11 -60 14 -68 19 -68 40 0 19 5 23 33 23 17 -1 50 -7 72 -15z m4650 -5
c0 -8 -13 -18 -30 -23 -16 -5 -44 -13 -62 -18 -17 -5 -54 -12 -82 -16 -42 -5
-52 -3 -57 11 -9 22 -6 24 67 46 76 22 164 23 164 0z m0 -81 c4 -5 4 -21 1
-35 -5 -20 -12 -24 -44 -24 -20 0 -66 -5 -101 -11 -51 -8 -66 -7 -72 3 -17 25
-9 37 29 43 20 3 62 12 92 19 69 18 87 19 95 5z m-4623 -17 c67 -9 72 -13 64
-48 -6 -21 -11 -25 -29 -19 -12 4 -60 12 -107 18 -83 12 -85 13 -88 41 l-4 29
54 -7 c29 -4 79 -10 110 -14z m-34 -97 c77 -6 92 -11 97 -26 11 -33 -4 -42
-54 -35 -25 4 -72 10 -104 13 -60 6 -75 18 -63 49 3 9 12 14 20 11 7 -3 54 -8
104 -12z m4682 0 c22 -26 -4 -39 -88 -46 -42 -4 -87 -10 -99 -14 -16 -5 -24
-1 -33 15 -18 34 1 44 88 51 42 3 87 6 98 7 12 1 27 -5 34 -13z m-4108 -305
c0 -279 0 -278 -75 -216 -24 20 -47 36 -51 36 -4 0 -22 11 -39 24 -18 14 -43
30 -57 35 -14 6 -38 20 -55 31 -45 29 -112 60 -129 60 -39 0 -4 44 59 74 61
30 160 89 163 98 2 4 9 8 15 8 15 0 119 70 130 88 5 7 15 12 24 10 13 -3 15
-37 15 -248z m3433 230 c10 -11 24 -20 32 -20 7 0 13 -4 13 -9 0 -5 12 -14 28
-20 15 -6 41 -20 57 -31 17 -11 39 -24 50 -30 42 -23 67 -38 78 -49 6 -6 19
-11 28 -11 9 0 22 -7 29 -15 7 -8 23 -15 36 -15 20 0 24 -5 24 -30 0 -25 -4
-30 -24 -30 -13 0 -29 -7 -36 -15 -7 -8 -21 -15 -31 -15 -10 0 -21 -5 -24 -11
-4 -5 -17 -15 -28 -20 -12 -5 -35 -18 -52 -29 -16 -11 -40 -24 -52 -29 -11 -5
-24 -15 -28 -20 -3 -6 -15 -11 -25 -11 -10 0 -23 -6 -27 -12 -13 -20 -73 -60
-84 -56 -7 2 -11 86 -10 246 0 133 0 244 1 247 1 12 29 3 45 -15z m-3959 -26
c26 -5 39 -31 24 -49 -14 -17 -176 -8 -207 11 -25 16 -30 39 -10 47 12 6 156
-1 193 -9z m4642 -6 c5 -26 -27 -37 -133 -44 l-97 -7 4 29 c3 28 5 29 73 35
112 10 149 6 153 -13z m-4705 -95 c82 -6 88 -7 85 -27 -3 -20 -9 -21 -113 -21
-98 0 -110 2 -113 18 -5 24 18 49 37 42 9 -4 56 -9 104 -12z m4702 -17 l0 -29
-101 -2 c-112 -3 -129 2 -120 33 6 18 17 22 74 25 37 2 85 3 107 3 37 -1 40
-3 40 -30z m-4617 -103 c2 -13 0 -23 -5 -24 -4 0 -54 -2 -111 -4 -107 -5 -123
1 -108 40 5 13 24 15 113 13 103 -3 108 -4 111 -25z m4622 2 c0 -14 -6 -25
-12 -26 -65 -3 -205 4 -212 11 -5 5 -6 16 -3 24 5 13 26 16 117 16 l110 0 0
-25z m-4632 -74 c8 -4 12 -19 10 -32 -3 -23 -7 -24 -108 -31 -58 -4 -109 -3
-114 2 -5 5 -6 20 -2 34 6 24 9 25 99 29 50 1 94 4 97 5 3 1 11 -2 18 -7z
m4625 -1 c5 0 7 -12 5 -27 l-3 -28 -100 3 c-103 4 -134 15 -122 46 5 12 23 14
109 10 57 -2 107 -4 111 -4z m-1 -118 c6 -6 8 -18 4 -27 -5 -15 -18 -16 -108
-10 -57 4 -106 9 -110 12 -12 7 -9 51 4 55 19 7 200 -20 210 -30z m-4607 -2
c0 -22 -5 -26 -50 -32 -94 -12 -172 -9 -179 7 -7 19 23 35 71 36 21 1 52 5 68
9 17 5 44 7 60 7 25 -2 30 -6 30 -27z m25 -96 c0 -19 -33 -34 -77 -34 -21 0
-58 -6 -83 -14 -56 -16 -70 -12 -70 24 0 28 1 28 77 35 42 4 88 11 102 15 28
8 51 -4 51 -26z m4500 16 c41 -5 76 -9 78 -9 9 -3 -1 -41 -14 -52 -12 -10 -22
-10 -48 -1 -18 7 -54 12 -80 12 -39 0 -76 10 -94 25 -2 2 2 13 8 25 10 18 17
21 43 15 18 -3 66 -10 107 -15z m-4500 -95 c17 -21 -1 -41 -43 -49 -18 -3 -59
-11 -93 -17 -65 -13 -94 -8 -94 15 0 17 48 35 140 51 36 7 68 13 71 14 4 0 12
-6 19 -14z m4444 0 c109 -16 116 -19 116 -46 0 -27 -21 -33 -77 -19 -26 6 -61
14 -78 16 -66 11 -75 15 -75 33 0 15 8 31 15 31 1 0 45 -7 99 -15z m-4416
-107 c4 -22 -22 -35 -110 -54 -109 -23 -113 -22 -116 5 -4 28 12 41 53 41 17
0 48 7 70 15 51 19 99 16 103 -7z m4422 4 c62 -16 76 -22 78 -40 5 -33 -14
-34 -116 -8 -96 24 -119 36 -108 55 10 16 60 13 146 -7z m-4395 -97 c0 -16
-13 -24 -60 -38 -33 -11 -69 -23 -80 -28 -11 -5 -33 -11 -50 -12 -27 -2 -30 1
-30 27 0 29 3 31 60 42 33 6 71 16 85 22 39 17 75 11 75 -13z m4330 10 c22 -8
50 -15 63 -15 35 0 62 -18 62 -41 0 -32 -26 -33 -118 -4 -97 30 -107 37 -99
59 8 20 39 20 92 1z m-4298 -92 c7 -19 -37 -51 -79 -58 -22 -4 -52 -13 -66
-21 -41 -21 -82 -18 -82 5 0 21 39 45 91 56 16 4 42 13 57 21 31 16 74 15 79
-3z m4303 -13 c83 -29 121 -53 107 -67 -12 -12 -70 -6 -122 12 -103 35 -105
36 -105 61 0 32 16 31 120 -6z m-4270 -79 c0 -18 -39 -51 -61 -51 -6 0 -25 -7
-42 -15 -51 -23 -116 -43 -122 -37 -3 3 -5 16 -5 29 0 18 7 25 30 30 17 3 33
10 36 14 3 5 13 9 22 9 10 0 33 9 52 19 47 26 90 27 90 2z m4197 -1 c21 -11
43 -20 50 -20 8 0 21 -4 31 -9 9 -5 25 -12 35 -15 9 -3 17 -12 17 -20 0 -32
-33 -35 -100 -9 -95 37 -108 44 -115 60 -14 37 26 43 82 13z m-4172 -80 c13
-21 -7 -49 -43 -60 -20 -6 -60 -23 -89 -37 -61 -29 -88 -28 -88 6 0 18 8 27
30 34 40 12 94 35 125 52 30 17 56 19 65 5z m4123 -4 c40 -22 94 -44 117 -48
12 -2 21 -12 23 -27 5 -31 -10 -45 -34 -33 -54 28 -113 52 -126 52 -8 0 -28
12 -43 26 -23 21 -25 28 -14 35 20 13 47 11 77 -5z m-4088 -101 c0 -21 -11
-30 -65 -55 -35 -16 -67 -30 -70 -30 -4 0 -13 -7 -21 -15 -25 -25 -44 -18 -44
15 0 24 6 33 28 42 15 6 52 23 82 39 70 36 90 37 90 4z m4076 -4 c33 -16 70
-32 84 -36 44 -13 58 -65 18 -65 -30 0 -208 89 -208 104 0 35 32 34 106 -3z
m-4021 -71 c10 -16 -9 -34 -72 -67 -32 -17 -72 -39 -90 -49 -30 -18 -33 -18
-49 -2 -22 21 -12 46 23 59 48 18 113 50 119 60 7 12 61 11 69 -1z m3992 -25
c37 -19 74 -35 81 -35 17 0 15 -59 -2 -66 -12 -5 -69 27 -86 47 -3 4 -16 10
-30 14 -41 13 -70 36 -70 56 0 28 30 24 107 -16z m-77 -71 c30 -19 69 -41 86
-48 39 -17 50 -52 22 -67 -16 -9 -24 -7 -42 10 -12 12 -26 21 -31 21 -4 0 -22
10 -39 23 -17 12 -43 28 -58 35 -30 12 -35 31 -16 50 17 17 17 16 78 -24z
m-3885 -3 c0 -18 -10 -30 -40 -46 -22 -11 -59 -34 -82 -49 -47 -31 -76 -29
-71 6 2 14 21 31 58 51 30 16 66 38 79 49 32 24 56 20 56 -11z m59 -67 c11
-27 7 -31 -66 -74 -40 -24 -81 -49 -90 -57 -22 -20 -38 -8 -38 27 0 23 5 30
30 35 17 4 30 10 30 14 0 4 10 13 23 20 12 7 38 21 57 31 43 24 46 24 54 4z
m3746 8 c0 -4 17 -16 37 -27 20 -11 41 -25 47 -30 6 -6 25 -15 41 -20 23 -8
30 -17 30 -35 0 -39 -33 -36 -107 12 -36 24 -74 48 -83 53 -23 14 -11 55 16
55 10 0 19 -3 19 -8z m-3681 -87 c10 -11 -13 -38 -55 -63 -25 -15 -63 -42 -83
-59 -20 -18 -39 -33 -44 -33 -6 0 -27 42 -27 55 0 2 24 17 53 34 29 16 63 42
77 56 19 20 30 25 50 20 14 -4 27 -8 29 -10z m3650 -13 c20 -16 57 -41 84 -56
47 -28 54 -39 38 -64 -7 -11 -15 -10 -43 5 -76 39 -148 94 -148 112 0 39 20
40 69 3z m-27 -102 c45 -33 85 -60 90 -60 4 0 8 -9 8 -20 0 -16 -7 -20 -35
-20 -18 0 -38 6 -42 13 -4 7 -19 20 -33 29 -14 8 -36 25 -48 36 -13 12 -29 23
-35 25 -10 3 -2 57 9 57 3 0 42 -27 86 -60z m-3565 24 c2 -6 -18 -25 -44 -42
-26 -17 -66 -47 -88 -66 -22 -20 -43 -36 -48 -36 -4 0 -13 12 -20 27 -9 20 -9
27 0 30 6 2 40 26 75 53 47 37 71 49 92 47 16 -1 31 -7 33 -13z m47 -57 c16
-12 15 -15 -16 -44 -92 -86 -127 -113 -147 -113 -34 0 -27 41 12 67 17 12 50
40 72 62 44 44 53 47 79 28z m3466 -52 c41 -36 78 -65 83 -65 14 0 7 -28 -9
-34 -29 -11 -53 -6 -63 12 -6 11 -35 38 -65 62 -40 30 -56 49 -56 66 0 39 29
28 110 -41z m-100 -43 c25 -27 58 -57 73 -66 28 -19 38 -68 17 -81 -6 -4 -41
23 -77 59 -37 36 -71 66 -75 66 -9 0 -11 32 -2 54 9 24 15 21 64 -32z m-3296
8 c4 -4 -7 -21 -25 -37 -18 -15 -54 -50 -80 -76 -49 -50 -81 -58 -87 -24 -2
12 22 42 70 87 72 68 93 77 122 50z m63 -66 c4 -10 -18 -39 -68 -88 -66 -65
-76 -72 -97 -63 -12 6 -21 14 -20 18 2 4 34 40 72 78 67 70 101 86 113 55z
m3204 -51 c72 -71 86 -103 47 -103 -30 0 -172 135 -164 155 11 31 48 14 117
-52z m-3141 -19 c0 -15 -10 -36 -22 -48 -13 -12 -44 -46 -70 -75 -40 -46 -49
-52 -63 -41 -17 14 -21 60 -5 60 11 0 83 72 107 108 22 32 53 29 53 -4z m3021
4 c7 -13 37 -47 67 -75 54 -52 55 -53 37 -73 -19 -21 -45 -27 -45 -11 0 11
-26 41 -92 108 -44 45 -46 73 -4 73 16 0 30 -8 37 -22z m-2943 -61 c3 -14 -47
-83 -105 -145 -7 -7 -13 -18 -13 -23 0 -15 -40 -10 -46 6 -7 17 8 42 56 95 17
19 38 48 46 63 17 32 56 35 62 4z m2866 -1 c8 -14 38 -49 66 -78 48 -52 61
-80 40 -93 -18 -11 -50 6 -64 33 -8 15 -33 45 -55 67 -22 22 -40 49 -41 61 0
41 30 46 54 10z m-1206 -24 c2 -7 -3 -15 -12 -18 -13 -5 -32 -31 -93 -129 -7
-11 -17 -29 -23 -40 -6 -11 -19 -33 -29 -50 -11 -16 -34 -58 -51 -92 -42 -82
-54 -85 -86 -20 -38 78 -56 111 -64 117 -3 3 -10 12 -13 20 -4 8 -16 29 -27
45 -11 17 -23 37 -27 45 -12 26 -47 75 -60 83 -12 8 -18 39 -9 48 2 2 114 4
247 3 175 0 244 -4 247 -12z m-1590 -41 c3 -15 -6 -34 -25 -55 -16 -17 -42
-50 -57 -73 -21 -31 -36 -43 -53 -43 -34 0 -38 23 -10 53 13 15 43 53 68 87
46 63 71 73 77 31z m2740 -18 c17 -27 43 -61 57 -78 30 -33 30 -69 0 -73 -14
-2 -26 7 -39 30 -11 18 -22 35 -26 38 -19 14 -80 112 -75 120 4 6 16 10 29 10
16 0 32 -14 54 -47z m-2652 -27 c3 -8 -16 -44 -45 -82 -28 -37 -51 -73 -51
-80 0 -8 -12 -17 -26 -20 -31 -8 -53 10 -39 30 6 8 29 43 52 78 23 34 47 69
53 76 15 16 49 15 56 -2z m2599 -71 c34 -50 55 -91 51 -100 -8 -21 -45 -19
-53 3 -4 9 -9 19 -12 22 -21 19 -81 120 -81 138 0 47 36 23 95 -63z m-2529 10
c5 -12 -37 -87 -91 -162 -20 -29 -55 -31 -55 -3 0 18 33 76 51 90 4 3 17 24
29 48 23 43 55 57 66 27z m2404 6 c0 -4 23 -42 50 -84 58 -88 62 -107 22 -107
-23 0 -31 7 -45 39 -10 21 -33 60 -53 85 -20 26 -33 54 -30 62 6 15 56 20 56
5z m-2320 -72 c0 -9 -6 -24 -14 -31 -7 -8 -29 -43 -48 -78 -24 -45 -42 -66
-56 -68 -34 -5 -28 37 13 99 19 30 35 58 35 63 0 5 10 20 22 33 16 17 24 20
35 12 7 -6 13 -20 13 -30z m2279 -55 c55 -92 60 -108 35 -118 -27 -10 -34 -7
-46 22 -17 36 -69 124 -85 140 -7 7 -13 16 -13 18 0 5 39 22 51 23 4 1 30 -38
58 -85z m-2193 14 c-3 -18 -10 -34 -14 -38 -4 -3 -25 -40 -47 -83 -26 -51 -45
-77 -55 -75 -19 4 -25 54 -9 74 6 8 24 39 39 69 35 70 48 85 72 85 18 0 20 -5
14 -32z m2071 2 c3 -16 9 -30 13 -30 4 0 18 -22 31 -50 13 -27 27 -50 31 -50
19 0 6 -38 -14 -44 -29 -7 -30 -6 -83 99 -46 91 -46 104 -2 105 12 0 20 -10
24 -30z m-80 -60 c12 -23 24 -50 27 -59 3 -9 15 -31 26 -50 25 -40 20 -61 -14
-61 -19 0 -27 7 -32 26 -4 15 -20 50 -35 80 -28 52 -36 93 -22 108 13 13 28
-1 50 -44z m-1907 25 c10 -12 10 -19 -1 -33 -20 -24 -48 -82 -57 -116 -9 -34
-32 -52 -56 -43 -20 8 -21 40 -2 56 8 7 18 26 21 42 4 16 11 29 16 29 5 0 9 6
9 14 0 54 42 85 70 51z m95 -36 c4 -5 0 -18 -9 -28 -9 -10 -16 -23 -16 -30 0
-7 -9 -31 -19 -54 -10 -23 -21 -51 -23 -62 -2 -15 -11 -20 -33 -20 -34 0 -45
24 -20 48 8 9 15 21 15 27 0 7 6 26 14 43 7 18 18 44 24 60 8 19 19 27 36 27
14 0 28 -5 31 -11z m1725 -36 c12 -27 27 -60 35 -75 17 -30 19 -66 6 -87 -14
-22 -34 -1 -55 61 -11 29 -25 62 -33 73 -21 31 -17 75 7 75 14 0 26 -14 40
-47z m-1640 -8 c0 -14 -4 -33 -10 -43 -18 -34 -39 -87 -45 -119 -8 -38 -18
-47 -45 -38 -27 9 -26 43 4 99 14 25 28 61 31 78 10 45 13 48 41 48 19 0 24
-5 24 -25z m1555 -40 c12 -33 26 -70 33 -82 7 -12 12 -36 12 -53 0 -27 -3 -31
-22 -28 -17 2 -27 17 -43 63 -12 33 -26 70 -33 82 -7 12 -12 36 -12 53 0 27 3
31 22 28 17 -2 27 -17 43 -63z m-1460 25 c3 -5 -1 -24 -9 -42 -8 -18 -17 -44
-21 -58 -3 -14 -10 -34 -15 -45 -5 -11 -11 -32 -14 -47 -6 -28 -38 -39 -51
-19 -6 11 13 99 25 116 4 6 11 28 15 50 4 22 9 43 11 47 7 11 52 10 59 -2z
m1367 -55 c10 -33 25 -75 34 -93 15 -33 11 -72 -7 -72 -29 0 -47 22 -53 64 -4
25 -13 58 -21 73 -7 15 -16 43 -20 61 -7 32 -6 33 20 30 24 -3 30 -11 47 -63z
m-1280 0 c-2 -16 -7 -34 -12 -40 -4 -5 -11 -30 -15 -55 -10 -62 -31 -100 -55
-100 -16 0 -20 7 -20 33 0 17 6 44 14 59 8 14 17 46 21 70 9 52 22 70 49 66
17 -2 20 -9 18 -33z m1185 -20 c8 -27 22 -72 30 -99 17 -57 11 -79 -18 -74
-28 4 -33 14 -58 123 -16 69 -18 91 -8 97 24 16 40 2 54 -47z m-1092 15 c4 -6
0 -34 -9 -63 -8 -29 -18 -73 -21 -99 -6 -47 -21 -63 -51 -51 -12 4 -14 14 -10
37 17 97 32 162 39 174 10 15 43 16 52 2z m93 -23 c2 -15 -4 -54 -12 -88 -9
-33 -16 -69 -16 -79 0 -9 -7 -23 -16 -30 -12 -11 -17 -11 -29 1 -11 12 -11 26
0 89 7 41 17 84 21 95 18 51 47 57 52 12z m791 19 c7 -8 16 -41 21 -73 4 -32
13 -71 19 -87 16 -40 7 -58 -26 -54 -27 3 -29 7 -38 75 -5 39 -13 75 -17 79
-10 9 -10 58 -1 67 11 11 30 8 42 -7z m109 -16 c1 -14 9 -48 18 -77 19 -63 16
-117 -8 -121 -17 -3 -34 42 -57 156 -13 61 -8 74 22 70 15 -2 23 -11 25 -28z
m-813 -92 c-9 -115 -18 -140 -48 -136 -26 4 -28 36 -8 138 19 92 18 90 42 90
21 0 21 -2 14 -92z m93 80 c6 -8 8 -49 4 -113 l-7 -100 -30 0 c-26 0 -30 3
-27 25 1 14 6 59 10 100 7 74 15 100 31 100 5 0 13 -6 19 -12z m429 -19 c6
-13 13 -62 15 -109 3 -76 1 -85 -16 -88 -10 -2 -23 1 -28 6 -14 14 -27 172
-16 200 10 28 29 24 45 -9z m89 23 c12 -7 37 -199 28 -214 -3 -4 -14 -8 -24
-8 -20 0 -25 12 -34 85 -3 22 -8 64 -12 93 -6 47 -5 52 12 52 11 0 24 -4 30
-8z m-411 -110 c-8 -118 -12 -132 -34 -132 -28 0 -32 22 -25 129 7 100 15 116
46 100 17 -9 18 -19 13 -97z m223 91 c10 -20 22 -191 15 -210 -6 -17 -40 -17
-49 -1 -12 20 -14 201 -2 215 14 18 26 16 36 -4z m-97 -10 c1 -14 1 -177 0
-195 -1 -13 -9 -18 -28 -18 -52 0 -57 10 -54 111 1 52 5 97 7 101 7 10 74 10
75 1z"/>
        <path d="M3593 4393 c-23 -2 -47 -11 -53 -19 -7 -7 -21 -14 -31 -14 -10 0 -39
-15 -63 -32 -77 -57 -109 -77 -163 -102 -28 -14 -54 -33 -57 -44 -6 -18 -57
-42 -89 -42 -10 0 -17 -8 -17 -18 0 -10 -14 -24 -32 -33 -18 -9 -68 -33 -110
-53 -43 -21 -80 -42 -83 -47 -4 -5 -24 -9 -45 -9 -21 0 -46 -3 -55 -6 -14 -6
-14 -8 0 -24 24 -26 -3 -44 -56 -37 -32 4 -44 1 -59 -16 -33 -35 -74 -57 -105
-57 -18 0 -41 -10 -55 -23 -14 -13 -30 -22 -36 -20 -21 7 -89 -14 -86 -26 1
-7 -2 -10 -7 -6 -6 3 -15 -4 -21 -16 -10 -17 -18 -20 -47 -16 -39 7 -63 0 -63
-17 -1 -29 -112 -78 -132 -58 -19 19 -28 14 -43 -22 -12 -29 -21 -35 -57 -41
-46 -7 -72 -15 -188 -64 -42 -17 -98 -34 -126 -37 -43 -5 -50 -9 -50 -28 1
-18 -6 -22 -63 -28 -35 -4 -71 -14 -80 -23 -10 -8 -29 -15 -44 -15 -31 0 -66
-44 -74 -94 -3 -18 3 -65 12 -102 10 -38 19 -95 20 -127 3 -57 13 -85 22 -59
11 29 23 8 23 -37 0 -28 5 -53 10 -56 15 -9 12 -51 -5 -65 -8 -7 -17 -27 -21
-46 -5 -30 -10 -34 -38 -34 -17 0 -53 -6 -81 -13 -43 -11 -53 -18 -70 -52 -11
-22 -20 -60 -20 -85 1 -75 25 -213 44 -246 10 -17 24 -55 32 -85 18 -76 64
-154 129 -221 45 -46 62 -58 87 -58 42 0 72 12 106 44 27 25 28 28 22 99 -9
97 -20 129 -56 161 -27 25 -29 30 -23 75 4 32 2 51 -5 55 -14 9 54 96 74 96 8
0 21 -8 30 -17 16 -16 18 -15 34 4 9 12 25 24 37 27 41 12 62 47 66 114 2 34
1 62 -4 62 -4 0 -8 -5 -8 -12 0 -6 -3 -8 -6 -5 -11 10 -34 160 -28 179 3 10
-8 31 -27 53 -31 35 -33 42 -35 118 l-2 81 45 43 c43 43 54 50 52 36 -5 -30 2
-35 41 -28 40 7 40 6 40 -25 0 -33 21 -82 49 -114 15 -17 15 -18 -3 -15 -10 2
-21 -2 -23 -8 -3 -8 4 -13 16 -13 12 0 21 -4 21 -10 0 -16 85 -100 101 -100
28 0 38 -22 32 -66 -4 -28 -1 -49 7 -59 10 -12 8 -16 -12 -24 -42 -16 -153
-97 -156 -114 -4 -21 21 -22 38 -2 7 8 23 15 37 15 40 0 226 96 256 132 18 21
17 22 -102 137 -200 192 -241 266 -168 303 17 9 39 19 47 22 8 3 29 15 45 25
17 11 91 49 165 86 74 37 142 71 150 76 8 5 22 12 30 15 8 3 44 19 80 36 36
16 81 36 100 45 19 8 48 21 63 29 16 8 33 14 38 14 5 0 37 13 71 28 35 16 83
37 108 46 25 10 59 24 75 32 17 7 42 16 58 20 15 3 30 10 33 15 3 5 12 9 21 9
8 0 29 6 46 13 46 20 98 38 132 46 17 4 39 12 50 18 25 13 119 43 133 43 6 0
23 5 39 12 44 18 132 39 201 46 64 8 87 23 76 52 -4 8 -10 29 -14 45 -10 40
-54 121 -82 150 -25 27 -53 32 -65 12 -4 -8 -15 -17 -23 -20 -8 -4 -42 -23
-75 -41 -33 -19 -82 -46 -110 -61 -27 -14 -68 -36 -90 -48 -35 -20 -75 -42
-125 -68 -8 -4 -76 -37 -150 -74 -74 -36 -142 -71 -150 -76 -8 -5 -22 -12 -30
-15 -8 -3 -58 -26 -110 -51 -52 -24 -111 -51 -130 -60 -19 -8 -42 -19 -50 -24
-8 -5 -22 -12 -30 -15 -26 -10 -73 -30 -145 -63 -38 -18 -86 -39 -105 -48 -19
-8 -48 -21 -63 -29 -16 -8 -35 -14 -44 -14 -8 0 -27 -6 -41 -14 -15 -7 -45
-22 -67 -31 -22 -10 -53 -24 -68 -31 -16 -8 -33 -14 -39 -14 -5 0 -24 -6 -41
-14 -18 -7 -52 -21 -77 -30 -25 -10 -58 -24 -73 -32 -16 -8 -40 -14 -54 -14
-14 0 -40 -7 -59 -16 -32 -15 -34 -19 -34 -65 0 -28 7 -66 15 -86 8 -19 15
-49 15 -65 0 -16 7 -45 15 -65 8 -19 15 -47 15 -62 1 -14 7 -37 15 -51 8 -14
14 -33 15 -43 0 -20 11 -47 61 -154 16 -35 29 -68 29 -74 0 -8 -21 -9 -67 -5
-38 3 -113 2 -168 -2 l-100 -7 3 -45 c2 -25 10 -55 18 -67 8 -12 14 -31 14
-41 0 -10 7 -27 15 -38 8 -10 15 -27 15 -37 0 -11 6 -31 13 -45 16 -30 35 -73
68 -147 12 -27 28 -55 37 -61 26 -19 3 -34 -53 -34 -63 0 -65 2 -139 155 -90
188 -120 279 -133 405 -8 84 -4 86 168 65 91 -11 145 -13 151 -7 6 6 4 21 -6
40 -9 17 -16 41 -16 54 0 13 -7 36 -15 52 -8 15 -15 39 -15 52 0 14 -7 41 -15
61 -8 19 -15 45 -15 57 0 11 -7 34 -15 50 -8 15 -15 41 -15 57 0 15 -6 43 -14
61 -8 18 -18 49 -21 69 -3 21 -12 42 -20 49 -8 7 -15 23 -15 36 0 31 35 32 67
2 21 -20 24 -20 41 -5 10 10 27 17 38 17 11 0 29 7 40 15 10 8 28 15 40 15 11
0 29 7 40 15 10 8 27 15 37 15 11 0 31 6 45 13 15 8 42 21 60 30 19 9 40 17
49 17 8 0 27 6 41 13 15 8 42 21 60 30 19 9 40 17 49 17 8 0 27 6 41 13 36 18
85 40 152 67 30 12 59 26 65 31 5 5 16 9 24 9 8 0 44 14 80 31 157 73 198 91
226 103 17 7 59 27 95 43 36 17 72 34 80 37 8 3 24 11 35 18 40 23 50 28 65
34 8 3 22 9 30 14 8 5 41 22 73 37 31 15 57 31 57 35 0 4 9 8 19 8 11 0 22 4
26 9 3 6 29 22 58 36 62 31 74 39 152 90 33 22 68 44 77 50 48 29 127 87 158
116 40 37 75 41 111 14 28 -21 89 -99 89 -114 0 -6 6 -14 13 -18 6 -4 20 -24
31 -43 63 -118 106 -206 106 -216 0 -7 7 -20 16 -28 8 -9 16 -28 17 -43 l2
-28 -150 -3 c-99 -1 -166 -7 -197 -17 -26 -8 -59 -15 -75 -15 -15 -1 -39 -7
-53 -15 -14 -8 -38 -14 -55 -15 -16 0 -43 -7 -59 -15 -15 -8 -36 -15 -45 -15
-9 0 -29 -7 -45 -15 -15 -8 -36 -15 -45 -15 -10 0 -26 -7 -37 -15 -10 -8 -28
-15 -40 -15 -11 0 -29 -7 -40 -15 -10 -8 -26 -15 -34 -15 -8 0 -42 -14 -75
-30 -33 -16 -66 -30 -72 -30 -13 0 -88 -35 -223 -105 -14 -7 -61 -30 -105 -51
-44 -21 -81 -41 -83 -46 -2 -4 -12 -8 -22 -8 -10 0 -21 -4 -25 -9 -3 -6 -29
-22 -58 -36 -84 -42 -112 -58 -117 -64 -3 -3 -44 -26 -92 -50 -58 -29 -88 -50
-88 -61 0 -17 74 -92 135 -137 125 -94 166 -122 208 -142 37 -18 47 -28 47
-47 0 -21 -5 -24 -33 -24 -18 0 -42 -7 -53 -15 -10 -8 -28 -15 -39 -15 -11 0
-29 -7 -39 -15 -11 -8 -28 -15 -37 -15 -10 0 -35 -11 -55 -25 -29 -20 -33 -26
-20 -31 9 -3 29 -1 44 5 15 6 79 15 142 21 63 5 131 14 150 20 19 5 58 10 85
10 28 0 77 7 108 15 32 8 73 15 91 15 19 0 56 6 82 14 49 14 116 28 229 47 32
5 64 14 69 19 6 6 24 10 40 10 17 0 51 6 76 14 52 16 115 33 179 47 24 5 50
14 57 20 20 17 61 3 68 -23 8 -32 7 -101 -2 -114 -7 -11 -44 -14 -348 -33 -78
-4 -146 -11 -152 -15 -6 -4 -47 -11 -91 -16 -83 -9 -151 -32 -151 -49 0 -14
575 -14 680 0 41 5 143 14 225 19 83 4 161 13 175 18 14 5 48 12 77 16 48 6
52 5 71 -21 20 -29 34 -109 25 -144 -5 -19 -16 -20 -337 -18 -182 0 -385 5
-451 10 -66 5 -385 13 -710 19 -446 8 -606 7 -657 -1 -38 -7 -68 -15 -68 -19
0 -11 39 -20 90 -20 25 0 63 -9 85 -20 34 -16 63 -19 195 -20 85 0 290 -4 455
-10 621 -20 1250 -30 1315 -20 57 8 70 14 102 48 63 68 64 156 2 226 -42 49
-78 55 -249 44 -129 -9 -159 -2 -169 35 -3 13 -10 18 -20 14 -11 -5 -18 4 -26
31 -14 54 -46 101 -76 112 -34 13 -201 13 -209 0 -17 -27 -83 -43 -190 -45
-128 -3 -124 -3 -105 -15 8 -5 30 -7 49 -3 24 4 32 2 29 -7 -8 -26 -126 -52
-293 -64 -38 -3 -85 -10 -104 -15 -19 -6 -38 -8 -42 -5 -5 3 -31 -3 -58 -13
-49 -17 -50 -17 -98 7 -56 27 -173 126 -173 146 0 7 -10 19 -22 25 -13 6 -47
32 -75 56 -45 38 -53 50 -53 78 0 35 20 55 56 55 10 0 27 9 38 19 12 11 46 29
76 41 29 12 60 30 68 41 18 26 66 50 94 46 16 -1 26 6 36 26 9 18 21 27 37 27
12 0 43 11 66 25 24 14 51 25 60 25 9 0 33 11 53 25 27 18 50 25 86 25 26 0
55 3 64 6 22 9 10 24 -20 24 -28 0 -32 15 -6 28 40 21 93 24 113 6 16 -15 23
-15 46 -5 22 10 24 14 12 22 -7 5 -22 9 -31 9 -23 0 -23 13 -1 31 11 10 44 14
112 13 84 -1 92 1 67 11 l-30 13 40 20 c39 20 147 33 161 19 3 -4 20 -7 37 -7
32 0 26 15 -9 22 -16 4 -13 7 16 20 24 10 84 18 175 23 159 7 235 26 266 64
17 23 19 34 13 86 -5 33 -9 75 -10 94 -1 22 -10 41 -24 52 -12 10 -28 40 -36
67 -8 27 -22 55 -30 62 -8 7 -15 18 -15 24 0 7 -11 23 -25 36 -14 13 -25 28
-25 34 0 30 -142 128 -180 124 -8 -1 -34 -3 -57 -5z m-17 -370 c9 -33 -19 -58
-47 -42 -22 11 -23 22 -9 50 16 28 48 24 56 -8z"/>
        <path d="M1695 1899 c-45 -14 -65 -26 -78 -48 -19 -33 -22 -105 -7 -147 17
-43 17 -158 1 -177 -10 -13 -11 -24 -2 -48 6 -18 11 -48 11 -68 0 -88 58 -113
255 -107 77 3 187 6 245 8 90 3 110 6 137 26 39 28 63 28 98 0 25 -20 38 -22
138 -20 60 1 127 -3 148 -9 29 -9 52 -9 99 1 53 11 66 19 98 57 20 23 40 43
44 43 4 0 14 -13 23 -30 8 -16 34 -39 57 -51 45 -23 62 -24 321 -17 70 2 130
1 133 -1 2 -3 39 -3 82 -2 77 3 108 3 213 0 60 -1 109 18 141 55 15 17 17 30
11 71 -10 67 -9 256 1 330 8 57 7 61 -20 93 -32 35 -77 52 -142 52 -60 0 -103
-21 -132 -64 -17 -25 -30 -34 -40 -29 -8 4 -29 7 -47 7 -22 1 -38 10 -53 29
-39 50 -71 59 -194 56 -61 -1 -136 -2 -166 -2 -30 0 -75 -1 -100 -1 -25 0
-101 1 -170 2 -69 2 -188 2 -266 0 -135 -3 -142 -4 -184 -31 l-43 -29 -56 28
c-50 25 -68 28 -171 30 -63 1 -162 5 -220 7 -84 4 -117 1 -165 -14z m2113 -93
c-2 -34 -7 -42 -26 -44 l-23 -4 4 -149 c3 -141 5 -151 26 -165 16 -12 21 -24
19 -47 l-3 -32 -85 2 c-47 1 -88 3 -92 3 -18 0 -7 60 12 70 16 8 20 21 20 59
0 26 5 73 11 105 7 41 7 62 0 69 -7 7 -13 2 -20 -15 -5 -15 -15 -29 -20 -33
-6 -3 -11 -18 -11 -32 0 -13 -6 -37 -14 -51 -19 -38 -37 -91 -45 -132 -6 -33
-9 -35 -56 -41 -58 -7 -65 -2 -84 63 -7 24 -19 57 -26 73 -10 25 -36 107 -51
163 -2 7 -8 10 -14 7 -6 -4 -10 -55 -10 -121 0 -103 2 -114 18 -114 25 0 42
-19 42 -47 0 -15 -6 -23 -17 -23 -10 -1 -49 -2 -88 -3 l-70 -2 -3 32 c-2 24 2
34 17 43 20 10 21 19 21 165 0 129 -2 155 -15 155 -20 0 -38 37 -31 66 6 24 9
25 93 22 l87 -3 7 -33 c4 -19 12 -39 18 -45 6 -6 11 -20 11 -32 0 -12 7 -30
15 -41 8 -10 15 -27 15 -37 0 -11 6 -31 14 -45 8 -15 17 -38 20 -52 8 -34 32
-63 45 -55 6 3 11 21 11 39 0 18 7 41 15 52 8 10 15 30 15 44 0 14 7 34 15 44
8 11 15 29 15 40 0 12 7 30 15 40 8 11 15 30 15 42 0 33 20 43 95 46 94 4 97
3 93 -46z m-1808 7 c0 -21 3 -55 6 -75 6 -33 4 -38 -18 -43 -13 -3 -35 -2 -50
4 -20 7 -25 15 -21 34 5 23 1 25 -39 29 -65 7 -69 3 -66 -61 l3 -56 60 0 60 0
0 -35 0 -35 -50 -1 c-27 -1 -56 -2 -62 -3 -18 -1 -17 -115 0 -129 7 -6 31 -8
55 -5 40 5 42 7 42 40 0 27 5 35 27 44 16 6 35 7 47 1 17 -7 19 -17 17 -78 -1
-38 -4 -70 -6 -72 -1 -2 -79 -3 -171 -4 l-169 -1 -3 32 c-3 26 1 34 17 38 20
5 21 13 23 149 0 79 1 149 2 156 1 7 -10 15 -24 18 -18 4 -26 13 -28 34 -7 56
-7 56 178 56 l170 0 0 -37z m189 20 c27 -27 196 -255 204 -276 15 -41 27 0 27
94 l0 100 -30 10 c-26 10 -30 16 -30 50 l0 39 90 0 90 0 0 -44 c0 -36 -4 -45
-21 -49 -22 -6 -22 -8 -17 -196 l5 -191 -34 -6 c-41 -8 -45 -4 -119 94 -32 42
-71 90 -86 107 -16 16 -36 46 -46 67 -32 70 -43 49 -40 -74 3 -110 3 -112 28
-118 18 -4 26 -13 28 -34 2 -16 -1 -32 -7 -35 -6 -4 -46 -7 -88 -6 l-78 2 -3
35 c-3 29 1 38 17 43 12 3 21 9 21 13 0 4 1 72 1 152 1 134 0 145 -17 149 -30
5 -44 21 -44 51 0 37 5 40 72 40 43 0 64 -5 77 -17z m742 -53 c7 -78 -2 -92
-53 -84 -32 6 -37 10 -40 38 -2 26 -8 32 -32 34 -15 2 -39 1 -52 -2 -21 -6
-23 -11 -21 -64 l2 -57 70 -5 70 -5 -3 -35 c-6 -51 -21 -57 -99 -34 -28 8 -41
-18 -35 -73 3 -32 9 -44 26 -49 26 -8 36 -22 36 -50 0 -28 -7 -30 -115 -29
l-90 0 -3 32 c-2 24 2 34 17 43 20 10 21 19 21 164 l0 153 -25 11 c-27 12 -34
49 -13 70 8 8 61 10 172 9 l161 -2 6 -65z m223 54 c12 -32 6 -55 -19 -66 l-25
-11 0 -154 0 -153 25 -12 c18 -8 25 -19 25 -40 0 -15 -6 -28 -12 -29 -117 -4
-170 -4 -179 1 -18 12 -6 64 16 69 11 2 22 7 25 11 3 5 5 75 5 157 0 143 -1
148 -22 158 -24 10 -34 35 -26 65 5 18 14 20 93 20 71 0 89 -3 94 -16z"/>
        <path d="M920 1565 c0 -8 7 -15 15 -15 8 0 15 7 15 15 0 8 -7 15 -15 15 -8 0
-15 -7 -15 -15z"/>
        <path d="M2665 1080 c3 -6 50 -10 106 -10 59 0 99 4 99 10 0 6 -42 10 -106 10
-67 0 -103 -4 -99 -10z"/>
        <path d="M1486 4875 c-3 -9 1 -18 10 -22 19 -7 28 2 21 22 -8 19 -23 19 -31 0z"/>
        <path d="M4525 4449 c-10 -15 1 -23 20 -15 9 3 13 10 10 16 -8 13 -22 13 -30
-1z"/>
        <path d="M34 2647 c-8 -22 3 -402 13 -477 6 -36 15 -75 21 -87 7 -12 12 -32
12 -45 0 -13 7 -43 15 -68 61 -187 74 -226 91 -265 23 -57 47 -110 56 -125 4
-8 11 -22 14 -30 3 -8 10 -22 15 -30 5 -8 11 -21 14 -27 12 -32 17 -40 38 -78
13 -22 32 -56 42 -75 35 -61 190 -287 210 -305 6 -5 29 -32 50 -60 51 -65 231
-245 320 -321 253 -216 546 -385 865 -499 19 -7 51 -18 70 -25 19 -6 51 -15
71 -19 19 -4 42 -12 49 -16 8 -5 32 -12 55 -17 22 -4 63 -12 90 -18 160 -32
215 -38 338 -33 70 3 127 9 127 13 0 19 -168 66 -435 121 -55 11 -143 36 -195
54 -52 18 -106 35 -120 38 -95 19 -508 228 -615 312 -22 17 -53 39 -71 50 -17
11 -47 30 -67 43 -20 13 -39 32 -42 43 -4 10 -14 19 -24 19 -23 0 -401 388
-401 412 0 10 -31 51 -82 110 -16 17 -28 38 -28 46 0 9 -9 25 -19 36 -10 12
-35 51 -54 87 -19 36 -42 78 -52 92 -21 33 -136 295 -158 362 -9 28 -26 77
-38 110 -11 33 -22 71 -24 85 -2 14 -8 41 -14 60 -6 19 -16 62 -21 95 -17 95
-64 295 -91 382 -6 18 -8 37 -4 42 3 5 1 12 -5 16 -6 3 -13 0 -16 -8z"/>
        <path d="M5441 2529 c-6 -28 -17 -63 -25 -78 -7 -14 -23 -66 -35 -116 -50
-207 -93 -372 -106 -400 -7 -16 -19 -48 -25 -70 -31 -103 -122 -306 -166 -370
-8 -11 -14 -27 -14 -36 0 -10 -12 -32 -27 -50 -15 -17 -37 -52 -50 -78 -13
-25 -37 -64 -53 -86 -17 -22 -38 -51 -47 -65 -44 -66 -88 -120 -99 -120 -6 0
-14 -10 -18 -22 -3 -13 -19 -31 -36 -40 -16 -9 -30 -23 -30 -31 0 -7 -15 -27
-32 -43 -18 -17 -40 -39 -49 -50 -9 -10 -57 -55 -108 -99 -50 -43 -91 -83 -91
-87 0 -4 -15 -15 -32 -24 -18 -9 -51 -31 -73 -48 -22 -17 -47 -35 -56 -41 -9
-5 -42 -27 -74 -48 -70 -46 -224 -133 -280 -157 -22 -10 -74 -33 -115 -53 -41
-19 -100 -43 -130 -52 -30 -9 -64 -21 -75 -25 -72 -30 -175 -61 -183 -56 -6 3
-30 -2 -54 -12 -23 -11 -63 -22 -88 -26 -149 -22 -380 -87 -380 -106 0 -15
254 -18 335 -4 238 42 318 64 548 150 203 76 466 222 652 363 154 116 378 331
470 451 27 36 52 67 55 70 8 6 64 85 124 175 39 58 54 82 102 170 26 47 90
175 111 225 9 19 22 48 29 63 8 16 14 36 14 46 0 9 5 22 11 28 6 6 14 26 19
44 8 32 14 53 41 132 6 17 15 50 19 72 5 22 13 60 19 85 28 127 41 206 41 259
0 88 -12 211 -21 211 -4 0 -12 -23 -18 -51z"/>
        <path d="M4760 1230 c0 -13 5 -20 13 -17 6 2 12 10 12 17 0 7 -6 15 -12 18 -8
2 -13 -5 -13 -18z"/>
        <path d="M1005 821 c-6 -11 9 -23 19 -14 9 9 7 23 -3 23 -6 0 -12 -4 -16 -9z"/>
        <path d="M1070 735 c0 -8 5 -15 10 -15 6 0 10 7 10 15 0 8 -4 15 -10 15 -5 0
-10 -7 -10 -15z"/>
        <path d="M4290 701 c0 -12 5 -21 10 -21 6 0 10 6 10 14 0 8 -4 18 -10 21 -5 3
-10 -3 -10 -14z"/>
    </g>
</svg>
